<?xml version="1.0" standalone="no"?>
<!DOCTYPE svg PUBLIC "-//W3C//DTD SVG 20010904//EN"
 "http://www.w3.org/TR/2001/REC-SVG-20010904/DTD/svg10.dtd">
<svg version="1.0" xmlns="http://www.w3.org/2000/svg"
 width="260.000000pt" height="260.000000pt" viewBox="0 0 260.000000 260.000000"
 preserveAspectRatio="xMidYMid meet">
<metadata>
Created by potrace 1.14, written by Peter Selinger 2001-2017
</metadata>
<g transform="translate(0.000000,260.000000) scale(0.100000,-0.100000)"
fill="#000000" stroke="none">
<path d="M1980 2477 c-19 -13 -59 -37 -88 -52 -30 -16 -65 -42 -78 -58 -24
-28 -24 -31 -24 -240 0 -116 4 -236 10 -266 5 -31 14 -94 20 -141 6 -47 19
-145 30 -218 18 -122 19 -168 13 -572 l-6 -440 -92 0 -92 0 37 108 c21 59 45
127 54 151 12 34 16 83 16 221 0 191 1 185 -77 435 -25 79 -28 106 -29 225 0
74 -4 145 -8 158 -4 12 -47 52 -94 88 l-87 66 -84 -6 c-46 -4 -95 -9 -109 -13
l-25 -6 7 166 c6 154 5 168 -12 185 -18 18 -69 29 -238 53 -90 12 -82 14 -229
-65 -115 -63 -115 -62 -115 -234 -1 -81 -5 -167 -10 -192 -5 -25 -19 -103 -30
-174 -11 -71 -21 -131 -23 -132 -1 -2 -30 11 -62 27 -56 29 -66 30 -145 26
-101 -6 -227 -25 -253 -38 -9 -6 -31 -28 -47 -51 l-30 -41 0 -146 c0 -107 4
-152 14 -166 7 -11 32 -64 55 -117 l41 -98 0 -139 0 -139 -50 -95 c-84 -159
-70 -183 120 -212 158 -23 232 -20 286 11 l44 26 0 -45 c0 -62 23 -86 134
-142 l94 -48 93 18 c52 10 118 22 148 27 77 14 101 41 101 113 0 49 2 56 17
51 10 -2 71 -10 136 -17 l117 -13 0 -41 c0 -56 18 -77 107 -125 l78 -42 90 5
c108 6 197 22 237 43 31 16 47 46 55 107 4 23 10 36 17 33 6 -2 43 -19 83 -37
l72 -32 83 27 c134 44 190 76 214 119 20 36 22 61 30 355 5 174 9 414 8 532 0
194 -3 226 -26 330 -14 63 -41 189 -58 280 -31 159 -32 172 -28 355 3 105 3
196 0 203 -12 35 -111 59 -282 68 -88 5 -98 3 -130 -19z m100 -46 c0 -9 20
-14 149 -32 l83 -12 -5 -39 c-3 -22 -14 -50 -25 -61 -17 -19 -22 -47 -33 -187
-17 -230 -16 -242 38 -505 68 -334 66 -229 21 -1008 -12 -217 -12 -219 -37
-236 -15 -10 -43 -24 -64 -32 -37 -13 -40 -12 -157 46 l-120 59 6 486 7 485
-42 296 c-37 266 -41 314 -39 460 l3 164 30 15 c70 37 144 82 155 95 14 17 30
20 30 6z m-954 -207 l66 -6 -7 -62 c-3 -33 -11 -106 -16 -161 -5 -55 -13 -119
-18 -143 -8 -40 1 -68 12 -38 3 8 32 15 84 20 43 4 104 12 135 18 63 13 80 8
134 -39 16 -13 36 -29 44 -34 13 -7 11 -12 -9 -27 -21 -17 -25 -33 -37 -146
-16 -144 -20 -120 60 -383 l46 -153 0 -171 0 -171 -71 -154 c-39 -84 -78 -159
-86 -165 -11 -10 -47 -9 -156 0 -78 7 -146 16 -150 20 -9 9 25 114 72 230 31
73 31 75 31 260 0 179 -1 190 -30 281 -16 52 -30 99 -30 103 0 13 -74 166 -81
167 -12 0 -19 -181 -19 -502 -1 -215 -4 -328 -11 -330 -6 -2 -19 -44 -29 -93
-10 -50 -26 -119 -34 -155 -9 -36 -19 -79 -22 -97 -6 -29 -12 -34 -58 -47
-109 -30 -119 -30 -198 10 -40 20 -76 42 -80 48 -4 6 -8 69 -9 141 -1 72 -2
154 -3 184 -1 44 3 56 19 65 78 44 75 37 75 158 0 104 -2 114 -35 189 l-35 80
0 165 c0 91 4 184 9 207 5 23 15 76 21 117 6 41 16 93 21 115 6 22 12 112 15
200 6 211 8 221 42 234 15 5 54 26 87 45 65 38 58 38 251 20z m-577 -763 l43
-23 -31 -32 c-27 -28 -33 -43 -43 -120 -11 -91 -9 -105 27 -191 88 -209 85
-199 85 -351 l0 -142 -46 -68 c-54 -82 -117 -143 -142 -139 -9 2 -74 9 -144
16 -71 6 -128 16 -128 20 0 5 23 53 50 106 l50 97 0 147 c0 156 3 141 -65 294
-12 28 -28 65 -36 83 -8 17 -17 32 -21 32 -5 0 -8 47 -8 104 0 103 0 104 32
139 35 37 32 36 191 55 43 5 80 12 83 15 6 6 35 -6 103 -42z m1369 -1119 c3
-48 0 -56 -30 -86 -30 -30 -117 -66 -161 -66 -9 0 -19 -4 -22 -10 -8 -12 -62
-13 -67 -1 -1 5 -31 23 -66 40 -35 18 -65 38 -69 46 -13 36 6 60 79 97 l73 37
130 -2 130 -2 3 -53z"/>
</g>
</svg>
